<?xml version="1.0" standalone="no"?>
<!DOCTYPE svg PUBLIC "-//W3C//DTD SVG 20010904//EN"
 "http://www.w3.org/TR/2001/REC-SVG-20010904/DTD/svg10.dtd">
<svg version="1.0" xmlns="http://www.w3.org/2000/svg"
 width="191.000000pt" height="191.000000pt" viewBox="0 0 191.000000 191.000000"
 preserveAspectRatio="xMidYMid meet">

<g transform="translate(0.000000,191.000000) scale(0.100000,-0.100000)"
fill="#000000" stroke="none">
<path d="M406 1889 c-175 -35 -325 -178 -371 -356 -21 -81 -22 -1071 -1 -1149
47 -176 194 -315 374 -353 61 -13 1058 -16 1066 -3 2 4 -22 29 -55 55 -67 54
-152 157 -220 265 -24 39 -46 71 -49 72 -3 0 -18 -21 -34 -46 -41 -65 -64 -78
-116 -64 -63 17 -74 3 -65 -82 5 -57 4 -69 -10 -74 -24 -10 -45 15 -45 54 0
34 -1 34 -19 18 -10 -9 -21 -31 -25 -47 -5 -26 -10 -30 -33 -27 -23 2 -29 8
-31 35 -3 27 1 35 22 44 26 12 40 35 30 50 -9 16 -22 10 -58 -27 -40 -41 -72
-40 -82 2 -8 31 5 46 54 59 49 14 52 37 7 54 -19 7 -40 9 -45 6 -29 -18 -54
47 -28 73 17 17 35 15 66 -8 15 -12 41 -22 57 -23 28 -2 30 0 27 28 -8 85 -7
89 12 93 24 5 46 -23 46 -58 0 -37 29 -60 75 -60 51 0 69 18 101 106 l27 74
-19 42 c-26 59 -98 111 -196 143 -68 23 -91 36 -129 75 -58 59 -82 121 -109
278 -33 194 -24 242 44 242 36 0 242 -68 310 -102 87 -43 125 -102 140 -218 9
-60 39 -108 79 -125 20 -8 76 -15 138 -16 57 -1 142 -8 188 -15 46 -8 87 -12
90 -9 9 10 1 84 -14 119 -8 20 -25 41 -37 47 -20 11 -25 8 -55 -27 -27 -33
-35 -37 -50 -28 -10 6 -19 22 -21 36 -2 20 5 30 33 47 45 26 37 45 -16 38 -44
-6 -75 18 -65 51 9 29 30 33 70 17 57 -24 63 -18 22 24 -40 41 -44 66 -13 85
24 15 49 -2 59 -41 4 -17 15 -36 23 -43 21 -18 31 12 17 56 -8 27 -7 37 5 49
36 37 68 5 59 -58 -5 -32 -3 -47 8 -56 11 -9 18 -6 35 16 40 54 41 54 62 42
28 -15 22 -60 -11 -76 -57 -28 -65 -87 -25 -201 28 -82 31 -131 10 -171 -16
-31 -33 -41 -71 -41 -14 0 -34 -5 -45 -11 -26 -13 -15 -27 61 -79 30 -21 91
-70 135 -109 44 -39 85 -71 92 -71 20 0 18 909 -2 1003 -15 73 -58 162 -106
221 -40 48 -135 112 -207 139 -55 21 -71 22 -587 23 -305 1 -551 -2 -579 -7z"/>
</g>
</svg>
